<svg id="Layer_1" data-name="Layer 1" xmlns="http://www.w3.org/2000/svg" viewBox="0 0 889.63 900"><defs><style>.cls-1,.cls-2{fill:#ff8f91;}.cls-2{font-size:250px;font-family:GillSans-SemiBold, Gill Sans;font-weight:600;}</style></defs><title>loop</title><path class="cls-1" d="M502,104.9l48.6,93.15C720.41,221.36,851.3,360.16,851.3,527.44,851.3,711,693.71,860.33,500,860.33S148.7,711,148.7,527.44c0-115.47,62.38-217.36,156.87-277.09l-42.08-80.64c-125,74.88-208.31,207.23-208.31,357.73C55.18,760.44,254.73,950,500,950S944.82,760.44,944.82,527.44C944.82,295.07,746.35,105.92,502,104.9Z" transform="translate(-55.18 -50)"/><polygon class="cls-1" points="288.39 132.81 478.42 0 510.55 206.72 288.39 132.81"/><text class="cls-2" transform="translate(159.06 547.81)">L</text><text class="cls-2" transform="translate(281.15 551.95)">O</text><text class="cls-2" transform="translate(584.58 551.95)">P</text><text class="cls-2" transform="translate(378.97 551.95)">O</text></svg>