<svg xmlns="http://www.w3.org/2000/svg" viewBox="0 0 545.52 177.01"><defs><style>.cls-1{fill:#fe8f91;}</style></defs><title>Asset 2</title><g id="Layer_2" data-name="Layer 2"><g id="Layer_1-2" data-name="Layer 1"><path class="cls-1" d="M308,176.94a103.36,103.36,0,0,1-41.19-7.7c-2.55-1.05-5-2.27-7.47-3.54a1.81,1.81,0,0,0-1.89,0A98.24,98.24,0,0,1,228,175.5a113.77,113.77,0,0,1-24.72,1.35c-20.3-1-38.91-7.11-55.12-19.54-17-13.06-27.5-30.29-31.59-51.38a87.46,87.46,0,0,1,18-71.11c11.81-14.69,27.13-24,45.19-29.08a106.87,106.87,0,0,1,19.06-3.36A120.68,120.68,0,0,1,214.37,2,100.84,100.84,0,0,1,257.61,13.1a1.32,1.32,0,0,0,1.42,0A93.14,93.14,0,0,1,285,4a113.71,113.71,0,0,1,14.84-1.83c3.91-.25,7.83-.28,11.74-.15a102.18,102.18,0,0,1,40.09,9.22,84.16,84.16,0,0,1,27.61,20.32,86.38,86.38,0,0,1,17.11,28.63,85,85,0,0,1,4.65,21.57,85.68,85.68,0,0,1-48.41,85.35,96.19,96.19,0,0,1-26.75,8.4A101.78,101.78,0,0,1,308,176.94ZM283.93,34.37c.28.41.49.74.73,1a85,85,0,0,1,18.65,48.28,87.86,87.86,0,0,1-1.2,21.6,86.06,86.06,0,0,1-17.59,38.25c-.66.83-.42,1,.42,1.3a66.75,66.75,0,0,0,21.86,3.67,70,70,0,0,0,14.64-1.35,56.4,56.4,0,0,0,33.91-20.55c8.19-10.22,11.67-22.11,12-35a64.41,64.41,0,0,0-2.6-20.7c-3.23-10.72-8.89-19.89-17.59-27-10.28-8.42-22.28-12.46-35.41-13.29a69.52,69.52,0,0,0-18.37,1.13A62,62,0,0,0,283.93,34.37Zm-75.15-3.88c-1.66.07-3.77,0-5.89.22A63.91,63.91,0,0,0,183,35.56a53.21,53.21,0,0,0-23.69,19.2,59.44,59.44,0,0,0-9.95,30.84,63.07,63.07,0,0,0,3.8,26.24c6.06,15.8,17.06,26.68,32.88,32.63a71.58,71.58,0,0,0,45.24.61c1.48-.51,1.47-.5.51-1.68a84.81,84.81,0,0,1-9.12-13.91,83.45,83.45,0,0,1-9.48-35.09,86.32,86.32,0,0,1,2-24A88.54,88.54,0,0,1,232,35.45c.74-.94.47-1.12-.47-1.44A67.1,67.1,0,0,0,208.78,30.49Zm38.4,60.13a60.66,60.66,0,0,0,.7,8.69,58,58,0,0,0,9.75,25.1c.52.76.75,1,1.43.08,7.05-9.85,10-21,10.43-32.93a66.11,66.11,0,0,0-1.42-16.06,58,58,0,0,0-9.2-21.29c-.57-.83-.86-.68-1.33,0-1.12,1.71-2.22,3.42-3.18,5.22C249.35,68.81,247.18,78.85,247.18,90.62Z"/><path class="cls-1" d="M425.55,90.51V5.65c0-1.54,0-1.54,1.56-1.54q32.28,0,64.56,0c10,0,19.59,1.7,28.41,6.59,13.54,7.5,22.1,18.83,24.63,34.38a53.36,53.36,0,0,1-3.49,30.53,44.93,44.93,0,0,1-13.14,16.93c-7.94,6.48-17.12,9.91-27.14,11.27a84.78,84.78,0,0,1-11.7.71c-9.72,0-19.44,0-29.16,0-1.27,0-1.49.38-1.49,1.56q.06,34.71.05,69.41c0,1.2-.25,1.56-1.49,1.55q-15.12-.09-30.24,0c-1.1,0-1.39-.28-1.39-1.4Q425.57,133,425.55,90.51Zm33.07-36.72c0,7.44,0,14.88,0,22.32,0,1.06.23,1.43,1.37,1.41,8.12-.14,16.23.11,24.34-.15a41.39,41.39,0,0,0,10.87-1.51c7-2.14,12.34-6.13,14.77-13.32a29.17,29.17,0,0,0,1-13.94c-1-6.61-4.37-11.66-10.4-14.78a36.09,36.09,0,0,0-16.3-3.76c-8.12-.12-16.24,0-24.35-.07-1,0-1.29.23-1.29,1.25C458.64,38.76,458.62,46.28,458.62,53.79Z"/><path class="cls-1" d="M0,88.44Q0,45,0,1.59C0,.38.22,0,1.49,0q15,.09,30.11,0c1.19,0,1.53.26,1.53,1.55q-.06,73.4,0,146.81c0,2-.21,1.79,1.73,1.79h79.31c1.76,0,1.76,0,1.76,1.81,0,7.92,0,15.84,0,23.76,0,1-.2,1.27-1.18,1.27Q58,177,1.23,177C0,177,0,176.45,0,175.53Q0,132,0,88.44Z"/></g></g></svg>